<svg id="facebook-logo" xmlns="http://www.w3.org/2000/svg" width="13.412" height="24.808" viewBox="0 0 13.412 24.808">
  <path id="Caminho_1" data-name="Caminho 1" d="M34.984.005,31.767,0c-3.614,0-5.95,2.4-5.95,6.105V8.92H22.583a.506.506,0,0,0-.506.506V13.5a.506.506,0,0,0,.506.506h3.235V24.3a.506.506,0,0,0,.506.506h4.22a.506.506,0,0,0,.506-.506V14.01h3.782a.506.506,0,0,0,.506-.506l0-4.078a.506.506,0,0,0-.506-.506H31.049V6.534c0-1.147.273-1.729,1.767-1.729h2.167a.506.506,0,0,0,.506-.506V.511A.506.506,0,0,0,34.984.005Z" transform="translate(-22.077 0)" fill="#4f1a30"/>
</svg>
