<svg id="instagram-logo" xmlns="http://www.w3.org/2000/svg" width="25.463" height="25.463" viewBox="0 0 25.463 25.463">
  <path id="Caminho_3" data-name="Caminho 3" d="M18.436,0H7.027A7.035,7.035,0,0,0,0,7.027V18.436a7.035,7.035,0,0,0,7.027,7.027H18.436a7.035,7.035,0,0,0,7.027-7.027V7.027A7.035,7.035,0,0,0,18.436,0ZM23.2,18.436A4.773,4.773,0,0,1,18.436,23.2H7.027a4.773,4.773,0,0,1-4.768-4.768V7.027A4.773,4.773,0,0,1,7.027,2.259H18.436A4.773,4.773,0,0,1,23.2,7.027V18.436Z" fill="#4f1a30"/>
  <path id="Caminho_4" data-name="Caminho 4" d="M47.529,40.97a6.561,6.561,0,1,0,6.561,6.561A6.569,6.569,0,0,0,47.529,40.97Zm0,10.863a4.3,4.3,0,1,1,4.3-4.3A4.307,4.307,0,0,1,47.529,51.833Z" transform="translate(-34.798 -34.799)" fill="#4f1a30"/>
  <path id="Caminho_5" data-name="Caminho 5" d="M120.578,28.251a1.656,1.656,0,1,0,1.172.485A1.663,1.663,0,0,0,120.578,28.251Z" transform="translate(-101.01 -23.996)" fill="#4f1a30"/>
</svg>
