<svg height="264pt" viewBox="-41 0 264 264.03558" width="264pt" xmlns="http://www.w3.org/2000/svg"><path d="m49.574219 145.976562-13.746094-10.800781c-8.292969-6.5-20.289063-5.050781-26.796875 3.234375-6.5 8.296875-5.054688 20.289063 3.234375 26.800782l18.929687 14.851562c11.792969 9.253906 18.683594 23.410156 18.683594 38.402344-.019531 22.394531 18.125 40.5625 40.523438 40.566406h38.894531c25.90625 0 46.910156-21 46.910156-46.90625v-134.589844l-15.566406-9.246094-12.703125 2.671876-4.546875-34.171876-24.085937 2.25-10.332032-34-22.332031 3.996094-6 14-28.667969 2.332032-1.832031 66.167968zm0 0" fill="#fff"/><path d="m117.929688 159.535156-6.34375 6.34375-6.34375-6.34375c-6.890626-6.722656-17.902344-6.652344-24.707032.152344-6.808594 6.804688-6.875 17.820312-.152344 24.707031l31.203126 31.203125 31.203124-31.203125c6.863282-6.863281 6.863282-17.992187 0-24.859375-6.863281-6.863281-17.992187-6.863281-24.859374 0zm0 0" fill="#71f7af"/><g fill="#27a891"><path d="m162.640625 63.523438c-3.007813.023437-5.96875.78125-8.613281 2.210937v-14c.027344-7.855469-4.246094-15.097656-11.136719-18.875s-15.292969-3.480469-21.902344.769531v-12.074218c.050781-11.332032-8.71875-20.75-20.027343-21.507813-11.308594-.757813-21.253907 7.40625-22.71875 18.644531-2.824219-1.636718-6.027344-2.511718-9.292969-2.53125h-5.015625c-10.488282.011719-18.988282 8.511719-19 19v84.875c0 2.761719 2.238281 5 5 5 2.761718 0 5-2.238281 5-5v-84.871094c.007812-4.96875 4.03125-8.992187 9-9h5.03125c4.96875.007813 8.996094 4.03125 9 9v99.871094c0 2.761719 2.238281 5 5 5 2.761718 0 5-2.238281 5-5v-113.480468c0-6.359376 5.15625-11.515626 11.515625-11.515626 6.363281 0 11.515625 5.15625 11.515625 11.515626v99.980468c0 2.761719 2.242187 5 5 5 2.761718 0 5-2.238281 5-5v-69.816406c0-6.359375 5.160156-11.515625 11.519531-11.515625 6.363281 0 11.519531 5.15625 11.519531 11.515625v80.316406c0 2.761719 2.238282 5 5 5 2.761719 0 5-2.238281 5-5v-49.894531c0-4.761719 3.855469-8.617187 8.617188-8.617187 4.757812 0 8.617187 3.855468 8.617187 8.617187v95.894531c0 2.761719 2.238281 5 5 5s5-2.238281 5-5v-95.894531c-.011719-10.28125-8.347656-18.609375-18.628906-18.617187zm0 0"/><path d="m176.269531 195.703125c-2.761719 0-5 2.238281-5 5v11.421875c-.023437 23.132812-18.769531 41.882812-41.902343 41.910156h-38.902344c-19.613282-.023437-35.507813-15.917968-35.53125-35.53125.050781-16.539062-7.554688-32.167968-20.597656-42.335937l-18.925782-14.851563c-4.039062-3.09375-6.101562-8.125-5.390625-13.160156.707031-5.039062 4.078125-9.304688 8.8125-11.164062 4.738281-1.855469 10.109375-1.019532 14.054688 2.195312l25.410156 19.199219c2.210937 1.667969 5.351563 1.226562 7.015625-.984375 1.667969-2.207032 1.226562-5.347656-.984375-7.015625l-25.339844-19.140625c-10.46875-8.214844-25.617187-6.382813-33.832031 4.085937-8.214844 10.472657-6.386719 25.621094 4.085938 33.835938l18.921874 14.867187c10.617188 8.28125 16.808594 21.007813 16.769532 34.472656.039062 25.128907 20.402344 45.492188 45.53125 45.527344h38.902344c28.652343-.03125 51.875-23.257812 51.902343-51.910156v-11.421875c0-2.761719-2.238281-5-5-5zm0 0"/><path d="m111.652344 220.605469c1.328125 0 2.601562-.527344 3.539062-1.464844l31.199219-31.199219c5.832031-5.679687 8.160156-14.054687 6.089844-21.929687-2.070313-7.871094-8.21875-14.019531-16.089844-16.089844-7.875-2.074219-16.25.253906-21.929687 6.085937l-2.800782 2.800782-2.796875-2.800782c-5.691406-5.777343-14.039062-8.0625-21.878906-5.980468-7.835937 2.078125-13.957031 8.199218-16.035156 16.035156s.203125 16.1875 5.980469 21.878906l31.199218 31.199219c.9375.933594 2.203125 1.460937 3.523438 1.464844zm-27.671875-57.535157c4.917969-4.902343 12.875-4.902343 17.792969 0l6.34375 6.34375c1.953124 1.953126 5.121093 1.953126 7.074218 0l6.34375-6.34375c4.976563-4.75 12.808594-4.75 17.785156 0 2.363282 2.359376 3.691407 5.558594 3.691407 8.898438 0 3.335938-1.328125 6.535156-3.691407 8.894531l-27.667968 27.667969-27.671875-27.667969c-4.902344-4.917969-4.902344-12.875 0-17.792969zm0 0"/></g></svg>