<svg id="youtube-logo" xmlns="http://www.w3.org/2000/svg" width="19.888" height="23.865" viewBox="0 0 19.888 23.865">
  <path id="YouTube" d="M24.322,17.457h-1.31l.006-.761a.618.618,0,0,1,.617-.615h.084a.618.618,0,0,1,.618.615Zm-4.913-1.63a.56.56,0,0,0-.6.5v3.7a.617.617,0,0,0,1.21,0v-3.7A.56.56,0,0,0,19.41,15.826Zm7.978-2.07V20.8a3.175,3.175,0,0,1-3.254,3.07H10.754A3.175,3.175,0,0,1,7.5,20.8V13.757a3.175,3.175,0,0,1,3.254-3.07h13.38A3.175,3.175,0,0,1,27.388,13.757Zm-15.741,7.8V14.145H13.3v-1.1L8.883,13.04v1.08l1.38,0V21.56Zm4.972-6.31H15.235v3.959a7.018,7.018,0,0,1,0,.96c-.112.307-.618.633-.815.033a7.88,7.88,0,0,1,0-.966l-.006-3.987H13.033l0,3.924c0,.6-.014,1.05,0,1.254.034.36.022.779.356,1.019a1.67,1.67,0,0,0,2.113-.707l0,.818h1.111V15.25Zm4.424,4.534,0-3.3c0-1.256-.941-2.008-2.216-.992l.006-2.45-1.381,0L17.441,21.5l1.136-.016.1-.527C20.132,22.293,21.044,21.381,21.042,19.783Zm4.328-.437-1.037.006c0,.041,0,.089,0,.14v.579a.566.566,0,0,1-.567.562h-.2a.566.566,0,0,1-.567-.562V18.549h2.374v-.894a14.1,14.1,0,0,0-.071-1.679c-.17-1.181-1.828-1.369-2.665-.764a1.561,1.561,0,0,0-.58.781,4.4,4.4,0,0,0-.176,1.393v1.965C21.876,22.618,25.843,22.156,25.37,19.347ZM20.051,8.679a.941.941,0,0,0,.333.42.963.963,0,0,0,.566.157.88.88,0,0,0,.53-.165,1.271,1.271,0,0,0,.388-.5l-.026.543h1.541V2.583H22.169v5.1a.505.505,0,0,1-1.011,0v-5.1H19.892V7c0,.563.01.939.027,1.129A1.9,1.9,0,0,0,20.051,8.679Zm-4.671-3.7A5.455,5.455,0,0,1,15.537,3.5a1.578,1.578,0,0,1,1.612-1.173,1.912,1.912,0,0,1,.917.207,1.528,1.528,0,0,1,.591.538,2.121,2.121,0,0,1,.285.683,5.443,5.443,0,0,1,.077,1.073V6.488a8.975,8.975,0,0,1-.072,1.339,2.123,2.123,0,0,1-.3.8,1.441,1.441,0,0,1-.593.545,1.893,1.893,0,0,1-.836.176,2.323,2.323,0,0,1-.891-.15,1.223,1.223,0,0,1-.569-.454,2.018,2.018,0,0,1-.29-.735,7.083,7.083,0,0,1-.086-1.292V4.977Zm1.207,2.6a.615.615,0,1,0,1.225,0V4.092a.615.615,0,1,0-1.225,0ZM12.321,9.343h1.454l0-5.028L15.5.009H13.9l-.914,3.2L12.065,0H10.491l1.828,4.318Z" transform="translate(-7.5)" fill="#4f1a30"/>
</svg>
